<?xml version="1.0" encoding="UTF-8" standalone="no"?>
<svg
   height="16px"
   viewBox="0 0 16 16"
   width="16px"
   version="1.1"
   id="svg1"
   sodipodi:docname="julia-symbolic.svg"
   inkscape:version="1.4 (e7c3feb100, 2024-10-09)"
   xmlns:inkscape="http://www.inkscape.org/namespaces/inkscape"
   xmlns:sodipodi="http://sodipodi.sourceforge.net/DTD/sodipodi-0.dtd"
   xmlns="http://www.w3.org/2000/svg"
   xmlns:svg="http://www.w3.org/2000/svg">
  <defs
     id="defs1" />
  <sodipodi:namedview
     id="namedview1"
     pagecolor="#ffffff"
     bordercolor="#000000"
     borderopacity="0.25"
     inkscape:showpageshadow="2"
     inkscape:pageopacity="0.0"
     inkscape:pagecheckerboard="0"
     inkscape:deskcolor="#d1d1d1"
     showgrid="true"
     inkscape:zoom="33.543378"
     inkscape:cx="7.6468148"
     inkscape:cy="8.4517427"
     inkscape:window-width="1920"
     inkscape:window-height="1011"
     inkscape:window-x="0"
     inkscape:window-y="0"
     inkscape:window-maximized="1"
     inkscape:current-layer="svg1">
    <inkscape:grid
       id="grid1"
       units="px"
       originx="0"
       originy="0"
       spacingx="1"
       spacingy="1"
       empcolor="#0099e5"
       empopacity="0.30196078"
       color="#0099e5"
       opacity="0.14901961"
       empspacing="5"
       enabled="true"
       visible="true" />
  </sodipodi:namedview>
  <path
     d="M 11.5,3.5 C 11.5,5.4322917 9.9322917,7 8,7 6.0677083,7 4.5,5.4322917 4.5,3.5 4.5,1.5677083 6.0677083,0 8,0 c 1.9322917,0 3.5,1.5677083 3.5,3.5 z m 0,0"
     fill="#222222"
     id="path1"
     style="stroke-width:1.16667" />
  <path
     d="M 7,11 C 7,12.932292 5.4322917,14.5 3.5,14.5 1.5677083,14.5 0,12.932292 0,11 0,9.0677083 1.5677083,7.5 3.5,7.5 5.4322917,7.5 7,9.0677083 7,11 Z m 0,0"
     fill="#222222"
     id="path1-5"
     style="stroke-width:1.16667" />
  <path
     d="m 16,11 c 0,1.932292 -1.567708,3.5 -3.5,3.5 C 10.567708,14.5 9,12.932292 9,11 9,9.0677083 10.567708,7.5 12.5,7.5 14.432292,7.5 16,9.0677083 16,11 Z m 0,0"
     fill="#222222"
     id="path1-5-2"
     style="stroke-width:1.16667" />
</svg>
