<?xml version="1.0" encoding="UTF-8" standalone="no"?>
<svg
   height="16px"
   viewBox="0 0 16 16"
   width="16px"
   version="1.1"
   id="svg1"
   sodipodi:docname="julia-symbolic.svg"
   inkscape:version="1.4 (e7c3feb100, 2024-10-09)"
   xmlns:inkscape="http://www.inkscape.org/namespaces/inkscape"
   xmlns:sodipodi="http://sodipodi.sourceforge.net/DTD/sodipodi-0.dtd"
   xmlns="http://www.w3.org/2000/svg"
   xmlns:svg="http://www.w3.org/2000/svg">
  <defs
     id="defs1" />
  <sodipodi:namedview
     id="namedview1"
     pagecolor="#ffffff"
     bordercolor="#000000"
     borderopacity="0.25"
     inkscape:showpageshadow="2"
     inkscape:pageopacity="0.0"
     inkscape:pagecheckerboard="0"
     inkscape:deskcolor="#d1d1d1"
     showgrid="true"
     inkscape:zoom="23.71875"
     inkscape:cx="6.1343873"
     inkscape:cy="16"
     inkscape:window-width="1920"
     inkscape:window-height="1011"
     inkscape:window-x="0"
     inkscape:window-y="0"
     inkscape:window-maximized="1"
     inkscape:current-layer="svg1">
    <inkscape:grid
       id="grid1"
       units="px"
       originx="0"
       originy="0"
       spacingx="1"
       spacingy="1"
       empcolor="#0099e5"
       empopacity="0.30196078"
       color="#0099e5"
       opacity="0.14901961"
       empspacing="5"
       enabled="true"
       visible="true" />
  </sodipodi:namedview>
  <path
     d="M 11,5 C 11,6.65625 9.65625,8 8,8 6.34375,8 5,6.65625 5,5 5,3.34375 6.34375,2 8,2 c 1.65625,0 3,1.34375 3,3 z m 0,0"
     fill="#222222"
     id="path1" />
  <path
     d="M 7,11 C 7,12.65625 5.65625,14 4,14 2.34375,14 1,12.65625 1,11 1,9.34375 2.34375,8 4,8 5.65625,8 7,9.34375 7,11 Z m 0,0"
     fill="#222222"
     id="path1-5" />
  <path
     d="m 15,11 c 0,1.65625 -1.34375,3 -3,3 -1.65625,0 -3,-1.34375 -3,-3 0,-1.65625 1.34375,-3 3,-3 1.65625,0 3,1.34375 3,3 z m 0,0"
     fill="#222222"
     id="path1-5-2" />
</svg>
