<?xml version="1.0" encoding="UTF-8" standalone="no"?>
<svg
   height="16px"
   viewBox="0 0 16 16"
   width="16px"
   version="1.1"
   id="svg2"
   sodipodi:docname="octave-symbolic.svg"
   inkscape:version="1.3.2 (091e20ef0f, 2023-11-25)"
   xmlns:inkscape="http://www.inkscape.org/namespaces/inkscape"
   xmlns:sodipodi="http://sodipodi.sourceforge.net/DTD/sodipodi-0.dtd"
   xmlns="http://www.w3.org/2000/svg"
   xmlns:svg="http://www.w3.org/2000/svg">
  <defs
     id="defs2" />
  <sodipodi:namedview
     id="namedview2"
     pagecolor="#ffffff"
     bordercolor="#000000"
     borderopacity="0.25"
     inkscape:showpageshadow="2"
     inkscape:pageopacity="0.0"
     inkscape:pagecheckerboard="0"
     inkscape:deskcolor="#d1d1d1"
     inkscape:zoom="23.875"
     inkscape:cx="5.4240838"
     inkscape:cy="8.0418848"
     inkscape:window-width="1920"
     inkscape:window-height="1011"
     inkscape:window-x="0"
     inkscape:window-y="0"
     inkscape:window-maximized="1"
     inkscape:current-layer="g2" />
  <g
     fill="#222222"
     id="g2">
    <path
       id="path2"
       style="stroke-width:0.984841"
       d="M 10.186191,0.74666339 A 0.43341008,0.43341008 0 0 0 9.7652906,1.0809075 C 9.0484201,0.87293689 8.3199368,0.75961179 7.6030204,0.74872659 5.444004,0.71594589 3.3937387,1.5762718 2.100373,3.3380864 1.7387592,3.8306748 1.4688538,4.3602438 1.2730158,4.9102714 H 0.58183211 A 0.58106505,0.58106505 0 0 0 -1.2200001e-7,5.4900404 V 8.578703 A 0.58106505,0.58106505 0 0 0 0.58183211,9.1605352 H 1.2193718 C 1.72132,10.83113 2.8047465,12.406756 4.3719947,13.557289 c 2.6222462,1.925016 5.9746953,2.214639 8.4386303,0.852116 h 1.991022 a 0.47764287,0.47764287 0 0 0 0.478671,-0.476608 v -2.036412 c 1.523205,-2.8815362 0.5511,-6.6246793 -2.184967,-8.9957044 V 1.182006 A 0.43341008,0.43341008 0 0 0 12.662072,0.74666339 Z M 10.61947,1.6152853 h 1.609323 V 3.0512967 H 10.61947 Z m -2.8740864,0.509619 c 0.6564585,-0.02217 1.3369376,0.06186 2.0075276,0.2537779 v 1.1058939 a 0.43341008,0.43341008 0 0 0 0.4332798,0.4332793 h 2.300506 c 2.085919,1.9603143 2.464891,5.0164915 1.227625,6.9984936 h -1.642335 a 0.47764287,0.47764287 0 0 0 -0.476607,0.47867 v 1.277142 C 9.79384,13.452221 7.416656,13.350006 5.5377223,11.970661 4.5389258,11.237435 3.854652,10.23665 3.4621081,9.1605352 h 0.439469 A 0.58106505,0.58106505 0 0 0 4.4834093,8.578703 V 5.4900404 A 0.58106505,0.58106505 0 0 0 3.9015771,4.9102714 H 3.435286 C 3.5740438,4.5555536 3.7487647,4.2234583 3.9655373,3.9281715 4.7902637,2.8047348 6.2004744,2.1770788 7.7453836,2.1249043 Z M 1.1616012,6.0718726 H 3.3197448 V 7.9968708 H 1.1616012 Z M 12.550657,11.871625 h 1.774383 v 1.582502 h -1.774383 z" />
  </g>
</svg>
