<?xml version="1.0" encoding="UTF-8" standalone="no"?>
<svg
   height="16px"
   viewBox="0 0 16 16"
   width="16px"
   version="1.1"
   id="svg2"
   sodipodi:docname="octave-symbolic.svg"
   inkscape:version="1.4 (e7c3feb100, 2024-10-09)"
   xmlns:inkscape="http://www.inkscape.org/namespaces/inkscape"
   xmlns:sodipodi="http://sodipodi.sourceforge.net/DTD/sodipodi-0.dtd"
   xmlns="http://www.w3.org/2000/svg"
   xmlns:svg="http://www.w3.org/2000/svg">
  <defs
     id="defs2" />
  <sodipodi:namedview
     id="namedview2"
     pagecolor="#ffffff"
     bordercolor="#000000"
     borderopacity="0.25"
     inkscape:showpageshadow="2"
     inkscape:pageopacity="0.0"
     inkscape:pagecheckerboard="0"
     inkscape:deskcolor="#d1d1d1"
     inkscape:zoom="95.5"
     inkscape:cx="2.9057592"
     inkscape:cy="6.6439791"
     inkscape:window-width="1920"
     inkscape:window-height="1011"
     inkscape:window-x="0"
     inkscape:window-y="0"
     inkscape:window-maximized="1"
     inkscape:current-layer="g2"
     showgrid="true">
    <inkscape:grid
       id="grid1"
       units="px"
       originx="0"
       originy="0"
       spacingx="1"
       spacingy="1"
       empcolor="#0099e5"
       empopacity="0.30196078"
       color="#0099e5"
       opacity="0.14901961"
       empspacing="5"
       enabled="true"
       visible="true" />
  </sodipodi:namedview>
  <g
     fill="#222222"
     id="g2">
    <path
       id="path2"
       style="stroke-width:0.984841"
       d="M 10.186191,0.74666339 C 9.9854057,0.74713253 9.8112307,0.8854479 9.7652906,1.0809075 9.0484201,0.87293689 8.3199368,0.75961179 7.6030204,0.74872659 5.444004,0.71594589 3.3937387,1.5762718 2.100373,3.3380864 1.7387592,3.8306748 1.4688538,4.3602438 1.2730158,4.9102714 H 0.58183211 C 0.26112478,4.9098472 7.1492714e-4,5.1693336 -1.2200001e-7,5.4900404 V 8.578703 C -4.2487967e-4,8.9002158 0.26031927,9.16096 0.58183211,9.1605352 H 1.2193718 C 1.72132,10.83113 2.8047465,12.406756 4.3719947,13.557289 c 2.6222462,1.925016 5.9746953,2.214639 8.4386303,0.852116 h 1.991022 c 0.263792,5.68e-4 0.4781,-0.212816 0.478671,-0.476608 V 11.896385 C 16.803523,9.0148488 15.964695,5.2717057 13.228628,2.9006806 V 1.182006 C 13.229698,0.9419371 13.03542,0.74673361 12.795349,0.74666339 Z M 11,2 h 1 V 3 H 11 Z M 7.7453836,2.1249043 c 0.6564585,-0.02217 1.3369376,0.06186 2.0075276,0.2537779 v 1.4242771 c 7.22e-5,0.2392638 0.194016,0.4332074 0.4332798,0.4332793 h 2.300506 c 2.085919,1.9603143 2.583359,4.5500231 1.346093,6.5320254 h -1.642335 c -0.263792,5.71e-4 -0.477175,0.214878 -0.476607,0.47867 v 1.277142 C 9.9123082,13.304136 7.416656,13.350006 5.5377223,11.970661 4.5389258,11.237435 3.854652,10.23665 3.4621081,9.1605352 h 0.439469 C 4.2230899,9.16096 4.4838341,8.9002158 4.4834093,8.578703 V 5.4900404 C 4.4826943,5.1693336 4.2222844,4.9098472 3.9015771,4.9102714 H 3.435286 C 3.5740438,4.5555536 3.7487647,4.2234583 3.9655373,3.9281715 4.7902637,2.8047348 6.2004744,2.1770788 7.7453836,2.1249043 Z M 1.1616012,6.0718726 H 3.3197448 V 7.9968708 H 1.1616012 Z M 13,12 h 1 v 1 h -1 z"
       sodipodi:nodetypes="ccssccccccscccccccccccccsccccccccscccccccscccccccccc" />
  </g>
</svg>
